<?xml version="1.0" encoding="utf-8"?>
<!-- Generator: Adobe Illustrator 28.2.0, SVG Export Plug-In . SVG Version: 6.00 Build 0)  -->
<svg version="1.1" id="Layer_1" xmlns="http://www.w3.org/2000/svg" xmlns:xlink="http://www.w3.org/1999/xlink" x="0px" y="0px"
	 viewBox="0 0 512 512" style="enable-background:new 0 0 512 512;" xml:space="preserve">
<style type="text/css">
	.st0{fill:#FFFFFF;}
</style>
<path class="st0" d="M56.1,16.7c9.4,0,18.1,3.3,24.9,8.9l-8,8c-1.1,1.1-1.4,2.8-0.9,4.3s2,2.4,3.6,2.4h27.5c2.2,0,3.9-1.8,3.9-3.9
	V8.9c0-1.6-1-3-2.4-3.6c-1.5-0.6-3.2-0.3-4.3,0.9l-8.3,8.3C82.5,6.1,69.9,1,56.1,1c-2.7,0-5.3,0.2-7.9,0.6v15.9
	C50.8,17,53.4,16.7,56.1,16.7z M25.7,31.1l8,8c1.1,1.1,2.8,1.4,4.3,0.9c1.4-0.6,2.4-2,2.4-3.6V8.9c0-2.2-1.8-3.9-3.9-3.9H9
	C7.4,5,6,6,5.4,7.4s-0.3,3.2,0.9,4.3l8.3,8.3C6.2,29.6,1.1,42.2,1.1,56c0,2.7,0.2,5.3,0.6,7.9h15.9c-0.5-2.5-0.8-5.2-0.8-7.9
	C16.9,46.6,20.2,37.9,25.7,31.1z M110.6,48.1h-16c0.5,2.5,0.8,5.2,0.8,7.9c0,9.4-3.3,18.1-8.9,24.9l-8-8c-1.1-1.1-2.8-1.4-4.3-0.9
	c-1.4,0.6-2.4,2-2.4,3.6v27.5c0,2.2,1.8,3.9,3.9,3.9h27.5c1.6,0,3-1,3.6-2.4s0.3-3.2-0.9-4.3L97.7,92c8.4-9.6,13.4-22.2,13.4-36
	C111.1,53.3,110.9,50.7,110.6,48.1z M56.1,95.3c-9.4,0-18.1-3.3-24.9-8.9l8-8c1.1-1.1,1.4-2.8,0.9-4.3c-0.6-1.4-2-2.4-3.6-2.4H9
	c-2.2,0-3.9,1.8-3.9,3.9v27.5c0,1.6,1,3,2.4,3.6s3.2,0.3,4.3-0.9l8.3-8.3c9.6,8.4,22.2,13.4,36,13.4c2.7,0,5.3-0.2,7.9-0.6V94.5
	C61.5,95,58.8,95.3,56.1,95.3z"/>
</svg>
