<?xml version="1.0" encoding="utf-8"?>
<!-- Generator: Adobe Illustrator 28.2.0, SVG Export Plug-In . SVG Version: 6.00 Build 0)  -->
<svg version="1.1" id="Layer_1" xmlns="http://www.w3.org/2000/svg" xmlns:xlink="http://www.w3.org/1999/xlink" x="0px" y="0px"
	 viewBox="0 0 512 512" style="enable-background:new 0 0 512 512;" xml:space="preserve">
<style type="text/css">
	.st0{fill:#FFFFFF;}
</style>
<path class="st0" d="M100.7,56c0-24.7-20-44.7-44.7-44.7S11.3,31.3,11.3,56s20,44.7,44.7,44.7S100.7,80.7,100.7,56z M1,56
	C1,25.6,25.6,1,56,1s55,24.6,55,55s-24.6,55-55,55S1,86.4,1,56z M56,35.4c11.4,0,20.6,9.2,20.6,20.6S67.4,76.6,56,76.6
	S35.4,67.4,35.4,56S44.6,35.4,56,35.4z"/>
</svg>
